<svg xmlns="http://www.w3.org/2000/svg" viewBox="0 0 232.29 59.72"><defs><style>.cls-1{fill:none;stroke:#000;stroke-miterlimit:10;stroke-width:2px;}</style></defs><g id="Layer_2" data-name="Layer 2"><g id="Layer_1-2" data-name="Layer 1"><path class="cls-1" d="M21.08,58.06C13.8,57.58,6,54.94,1.48,50.54c1-.88,5.6-7.44,7.2-10.4,4.56,5.28,10.24,5.36,11.44,3.2.88-1.6-.56-4.32-6.4-7.28C4.28,31.18,2.12,22,3.56,15.58c4-17.12,27.52-19.36,37.92-4L33.8,20.3c-3.68-5.92-16-7.36-13.28-1.52C23.24,24.86,45,27.26,38.52,51,35.56,57,29.16,58.62,21.08,58.06Z"/><path class="cls-1" d="M56.44,57.74c-.48-13.92-.88-27.92-1.6-41.92l-11.68-.08L42.2,1c9.68.16,30.08.48,41.6.64.48,5-.16,9.52-.4,14.4l-11.6.32c.08.16,1.12,37.68,1.2,42.24Z"/><path class="cls-1" d="M87.56,4.7,105.8,6.14c-1.12,23.28-.48,36.4-.16,49.92l-18.4.4Z"/><path class="cls-1" d="M110,2.94l15.76.16.48,18.08s.16-.08.16-.16c3.84-5.92,7.12-12.8,10.24-19l19.84.88C155.08,5,140.2,28.38,138.36,31.1l20.08,26-21.44,1-9-14.72-.64,15L109,58.7Z"/><path class="cls-1" d="M161.08,2.94l15.76.16.48,18.08s.16-.08.16-.16c3.84-5.92,7.12-12.8,10.24-19l19.84.88C206.12,5,191.24,28.38,189.4,31.1l20.08,26-21.44,1-9-14.72-.64,15L160,58.7Z"/><path class="cls-1" d="M213,4.7l18.24,1.44c-1.12,23.28-.48,36.4-.16,49.92l-18.4.4Z"/></g></g></svg>