<svg xmlns="http://www.w3.org/2000/svg" viewBox="0 0 232.28 59.74"><defs><style>.cls-1{fill:none;stroke:#fff;stroke-miterlimit:10;stroke-width:2px;}</style></defs><g id="Layer_2" data-name="Layer 2"><g id="Layer_1-2" data-name="Layer 1"><g id="Layer_2-2" data-name="Layer 2"><g id="Layer_1-2-2" data-name="Layer 1-2"><path class="cls-1" d="M21.07,58.08C13.79,57.6,6,55,1.47,50.56a76.21,76.21,0,0,0,7.2-10.4c4.56,5.28,10.24,5.36,11.44,3.2.88-1.6-.56-4.32-6.4-7.28C4.27,31.2,2.11,22,3.55,15.6c4-17.12,27.52-19.36,37.92-4l-7.68,8.72c-3.68-5.92-16-7.36-13.28-1.52C23.23,24.88,45,27.28,38.51,51,35.55,57,29.15,58.64,21.07,58.08Z"/><path class="cls-1" d="M56.43,57.76c-.48-13.92-.88-27.92-1.6-41.92l-11.68-.08L42.19,1c9.68.16,30.08.48,41.6.64.48,5-.16,9.52-.4,14.4l-11.6.32c.08.16,1.12,37.68,1.2,42.24Z"/><path class="cls-1" d="M87.55,4.72l18.24,1.44c-1.12,23.28-.48,36.4-.16,49.92l-18.4.4Z"/><path class="cls-1" d="M110,3l15.76.16.48,18.08s.16-.08.16-.16c3.84-5.92,7.12-12.8,10.24-19l19.84.88c-1.4,2.1-16.28,25.48-18.12,28.2l20.08,26-21.44,1L128,43.4l-.64,15L109,58.72Z"/><path class="cls-1" d="M161.07,3l15.76.16.48,18.08s.16-.08.16-.16c3.84-5.92,7.12-12.8,10.24-19l19.84.88c-1.44,2.1-16.32,25.48-18.16,28.2l20.08,26-21.44,1L179,43.4l-.64,15-18.4.32Z"/><path class="cls-1" d="M213,4.72l18.24,1.44c-1.12,23.28-.48,36.4-.16,49.92l-18.4.4Z"/></g></g></g></g></svg>