<svg xmlns="http://www.w3.org/2000/svg" viewBox="0 0 300 75"><defs><style>.cls-1{fill:#00c89a;}</style></defs><g id="Layer_2" data-name="Layer 2"><g id="Layer_1-2" data-name="Layer 1"><polygon class="cls-1" points="300 69.36 300 71.53 291.82 75 286.69 75 300 69.36"/><polygon class="cls-1" points="300 63.36 300 65.53 277.67 75 272.54 75 300 63.36"/><polygon class="cls-1" points="300 57.36 300 59.53 263.52 75 258.39 75 300 57.36"/><polygon class="cls-1" points="300 51.36 300 53.53 249.37 75 244.25 75 300 51.36"/><polygon class="cls-1" points="300 45.36 300 47.53 235.22 75 230.1 75 300 45.36"/><polygon class="cls-1" points="300 39.36 300 41.53 221.07 75 215.95 75 300 39.36"/><polygon class="cls-1" points="300 33.36 300 35.53 206.92 75 201.8 75 300 33.36"/><polygon class="cls-1" points="300 27.36 300 29.53 192.77 75 187.65 75 300 27.36"/><polygon class="cls-1" points="300 21.36 300 23.53 178.62 75 173.5 75 300 21.36"/><polygon class="cls-1" points="300 15.36 300 17.53 164.47 75 159.35 75 300 15.36"/><polygon class="cls-1" points="300 9.36 300 11.53 150.32 75 145.2 75 300 9.36"/><polygon class="cls-1" points="300 3.36 300 5.53 136.18 75 131.05 75 300 3.36"/><polygon class="cls-1" points="298.9 0 122.03 75 116.9 75 293.77 0 298.9 0"/><polygon class="cls-1" points="284.75 0 107.88 75 102.75 75 279.62 0 284.75 0"/><polygon class="cls-1" points="270.6 0 93.73 75 88.6 75 265.47 0 270.6 0"/><polygon class="cls-1" points="256.45 0 79.58 75 74.45 75 251.32 0 256.45 0"/><polygon class="cls-1" points="242.3 0 65.43 75 60.3 75 237.17 0 242.3 0"/><polygon class="cls-1" points="228.15 0 51.28 75 46.15 75 223.02 0 228.15 0"/><polygon class="cls-1" points="214 0 37.13 75 32.01 75 208.87 0 214 0"/><polygon class="cls-1" points="199.85 0 22.98 75 17.86 75 194.72 0 199.85 0"/><polygon class="cls-1" points="185.7 0 8.83 75 3.71 75 180.57 0 185.7 0"/><polygon class="cls-1" points="171.55 0 0 72.74 0 70.57 166.42 0 171.55 0"/><polygon class="cls-1" points="157.4 0 0 66.74 0 64.57 152.27 0 157.4 0"/><polygon class="cls-1" points="143.25 0 0 60.74 0 58.57 138.13 0 143.25 0"/><polygon class="cls-1" points="129.1 0 0 54.74 0 52.57 123.98 0 129.1 0"/><polygon class="cls-1" points="114.95 0 0 48.74 0 46.57 109.83 0 114.95 0"/><polygon class="cls-1" points="100.8 0 0 42.74 0 40.57 95.68 0 100.8 0"/><polygon class="cls-1" points="86.65 0 0 36.74 0 34.57 81.53 0 86.65 0"/><polygon class="cls-1" points="72.5 0 0 30.74 0 28.57 67.38 0 72.5 0"/><polygon class="cls-1" points="58.35 0 0 24.74 0 22.57 53.23 0 58.35 0"/><polygon class="cls-1" points="44.2 0 0 18.74 0 16.57 39.08 0 44.2 0"/><polygon class="cls-1" points="30.05 0 0 12.74 0 10.57 24.93 0 30.05 0"/><polygon class="cls-1" points="15.9 0 0 6.74 0 4.57 10.78 0 15.9 0"/><polygon class="cls-1" points="1.75 0 0 0.74 0 0 1.75 0"/></g></g></svg>